<svg width="847" height="180" viewBox="0 0 847 180" fill="none" xmlns="http://www.w3.org/2000/svg">
<g clip-path="url(#clip0_0_213)">
<path d="M191.91 41.42H200.61V82.07C203.42 77.63 207.11 74.09 211.69 71.47C216.27 68.84 221.32 67.53 226.85 67.53C233.19 67.53 239.04 69.09 244.39 72.22C249.74 75.35 254 79.61 257.17 85C260.34 90.39 261.93 96.26 261.93 102.61C261.93 108.96 260.34 114.82 257.17 120.22C254 125.61 249.74 129.87 244.39 133C239.04 136.13 233.19 137.69 226.85 137.69C220.51 137.69 214.66 136.13 209.31 133C203.96 129.87 199.73 125.61 196.6 120.22C193.47 114.83 191.91 108.96 191.91 102.61V41.42ZM213.46 79.35C209.43 81.71 206.25 84.95 203.94 89.07C201.63 93.19 200.47 97.7 200.47 102.6C200.47 107.5 201.63 112 203.94 116.13C206.25 120.26 209.4 123.5 213.39 125.85C217.38 128.21 221.86 129.39 226.85 129.39C231.84 129.39 236.21 128.21 240.24 125.85C244.27 123.49 247.45 120.25 249.76 116.13C252.07 112.01 253.23 107.5 253.23 102.6C253.23 97.7 252.05 93.22 249.7 89.14C247.34 85.06 244.15 81.82 240.11 79.42C236.08 77.02 231.66 75.82 226.85 75.82C222.04 75.82 217.49 77 213.46 79.36" fill="#3E436D"/>
<path d="M329.57 72.21C334.96 75.34 339.22 79.6 342.35 84.99C345.48 90.38 347.04 96.25 347.04 102.6C347.04 108.95 345.48 114.81 342.35 120.21C339.22 125.6 334.96 129.86 329.57 132.99C324.18 136.12 318.31 137.68 311.96 137.68C305.61 137.68 299.77 136.12 294.42 132.99C289.07 129.86 284.81 125.6 281.64 120.21C278.47 114.82 276.88 108.95 276.88 102.6C276.88 96.25 278.47 90.39 281.64 84.99C284.81 79.6 289.07 75.34 294.42 72.21C299.77 69.08 305.61 67.52 311.96 67.52C318.31 67.52 324.17 69.08 329.57 72.21ZM298.71 79.35C294.68 81.71 291.48 84.95 289.13 89.07C286.77 93.19 285.59 97.7 285.59 102.6C285.59 107.5 286.77 111.98 289.13 116.06C291.49 120.14 294.7 123.38 298.78 125.78C302.86 128.18 307.3 129.38 312.1 129.38C316.9 129.38 321.32 128.2 325.36 125.84C329.39 123.48 332.57 120.24 334.88 116.12C337.19 112 338.35 107.49 338.35 102.59C338.35 97.69 337.19 93.19 334.88 89.06C332.57 84.94 329.42 81.7 325.43 79.34C321.44 76.99 317 75.8 312.11 75.8C307.22 75.8 302.75 76.98 298.72 79.34" fill="#3E436D"/>
<path d="M373.96 68.61H365.26V136.59H373.96V68.61Z" fill="#3E436D"/>
<path d="M457.51 120.21C454.38 125.6 450.15 129.86 444.8 132.99C439.45 136.12 433.6 137.68 427.26 137.68C420.92 137.68 415.07 136.12 409.72 132.99C404.37 129.86 400.11 125.6 396.94 120.21C393.77 114.82 392.18 108.95 392.18 102.6C392.18 96.25 393.77 90.39 396.94 84.99C400.11 79.6 404.37 75.34 409.72 72.21C415.07 69.08 420.91 67.52 427.26 67.52C432.79 67.52 437.84 68.84 442.42 71.46C447 74.09 450.69 77.62 453.5 82.06V41.42H462.2V102.6C462.2 108.95 460.64 114.81 457.51 120.21ZM414 79.42C409.97 81.82 406.77 85.06 404.42 89.14C402.06 93.22 400.88 97.71 400.88 102.6C400.88 107.49 402.04 112 404.35 116.13C406.66 120.26 409.83 123.5 413.87 125.85C417.9 128.21 422.37 129.39 427.26 129.39C432.15 129.39 436.73 128.21 440.72 125.85C444.71 123.49 447.86 120.25 450.17 116.13C452.48 112.01 453.64 107.5 453.64 102.6C453.64 97.7 452.48 93.2 450.17 89.07C447.86 84.95 444.69 81.71 440.65 79.35C436.62 77 432.15 75.81 427.26 75.81C422.37 75.81 418.04 77.01 414 79.41" fill="#3E436D"/>
<path d="M497.12 66.9301H480.8L506.54 136.51H523.22L549.11 66.9301H532.79L514.88 118.16L497.12 66.9301Z" fill="#C6D76B"/>
<path d="M627.01 81.81C623.44 76.63 618.87 72.62 613.42 69.89C607.94 67.15 602.16 65.77 596.23 65.77C589.77 65.77 583.75 67.43 578.35 70.7C572.94 73.99 568.62 78.44 565.52 83.95C562.42 89.45 560.85 95.48 560.85 101.87C560.85 108.26 562.47 114.39 565.65 119.84C568.84 125.3 573.23 129.69 578.69 132.88C584.14 136.07 590.24 137.68 596.81 137.68C604.02 137.68 610.68 135.67 616.59 131.69C621.8 128.19 625.88 123.7 628.74 118.33L609.31 118.21C607.76 119.4 606.04 120.39 604.2 121.14C602.12 121.99 599.44 122.43 596.23 122.43C591.63 122.43 587.67 121.28 584.44 119C581.16 116.69 579.01 113.51 578.04 109.54L577.55 107.53H632.26C632.58 105.15 632.7 102.68 632.62 100.17C632.43 93.14 630.54 86.96 627.01 81.81ZM577.13 95.62L578.14 93.34C579.81 89.59 582.25 86.57 585.39 84.37C588.57 82.15 592.41 81.02 596.81 81.02C600.8 81.02 604.56 82.16 607.97 84.42C611.38 86.68 613.91 89.69 615.49 93.36L616.46 95.62H577.13Z" fill="#C6D76B"/>
<path d="M652.4 99.83V136.51H668.09V99.83C668.09 93.77 669.2 89.4 671.49 86.45C673.69 83.62 677.79 82.1 682.04 81.91V66.64C673.55 66.79 665.76 69.57 660.53 74.89C655.14 80.37 652.4 88.76 652.4 99.82" fill="#C6D76B"/>
<path d="M743.29 98.83C739.49 97.65 734.71 96.56 729.08 95.6C724.08 94.8 720.5 93.96 718.13 93.03C714.51 91.61 713.75 89.29 713.75 87.59C713.75 85.89 714.43 83.35 717.67 81.39C720.01 79.98 722.91 79.26 726.3 79.26C729.69 79.26 732.86 80.02 735.48 81.51C737.78 82.82 739.18 84.46 739.67 86.39H754.64C754.28 80.18 751.77 75.38 747.02 71.75C741.8 67.77 734.93 65.75 726.59 65.75C721.2 65.75 716.26 66.67 711.92 68.47C707.63 70.25 704.2 72.73 701.72 75.85C699.26 78.93 698.07 82.29 698.07 86.13C698.07 91.12 699.32 94.99 701.78 97.62C704.34 100.36 707.42 102.32 710.92 103.45C714.62 104.64 719.35 105.72 724.97 106.67C730.27 107.57 734.03 108.45 736.49 109.37C740.25 110.78 741.04 113.43 741.04 115.41C741.04 117.21 740.36 119.79 737.15 121.81C734.81 123.28 731.55 124.02 727.47 124.02C723.39 124.02 719.65 123.21 716.84 121.62C714.32 120.2 712.81 118.36 712.33 116.15H697.39C697.66 120.32 698.97 123.97 701.3 127.01C703.97 130.49 707.58 133.16 712.05 134.94C716.59 136.75 721.63 137.67 727.04 137.67C736.08 137.67 743.45 135.78 748.92 132.05C754.26 128.41 756.82 123.12 756.73 115.86C756.73 111 755.45 107.34 752.83 104.67C750.12 101.92 746.92 99.95 743.31 98.82" fill="#C6D76B"/>
<path d="M846.8 100.16C846.61 93.14 844.72 86.96 841.19 81.81C837.62 76.63 833.05 72.62 827.6 69.89C822.12 67.15 816.34 65.77 810.41 65.77C803.95 65.77 797.93 67.43 792.53 70.7C787.12 73.99 782.8 78.44 779.7 83.95C776.6 89.45 775.03 95.48 775.03 101.87C775.03 108.26 776.65 114.39 779.83 119.84C783.02 125.3 787.41 129.69 792.87 132.88C798.32 136.07 804.42 137.68 810.99 137.68C818.2 137.68 824.86 135.67 830.77 131.69C835.98 128.19 840.06 123.7 842.92 118.33L823.5 118.21C821.95 119.4 820.23 120.39 818.39 121.14C816.31 121.99 813.63 122.43 810.42 122.43C805.82 122.43 801.86 121.28 798.63 119C795.35 116.69 793.2 113.51 792.24 109.54L791.75 107.53H846.46C846.77 105.15 846.9 102.68 846.82 100.17L846.8 100.16ZM828.18 95.61H791.31L792.32 93.33C793.99 89.58 796.43 86.56 799.57 84.36C802.75 82.14 806.59 81.01 810.99 81.01C814.98 81.01 818.74 82.15 822.15 84.41C825.56 86.67 828.09 89.68 829.67 93.35L830.64 95.61H828.18Z" fill="#C6D76B"/>
<path d="M365.67 55.22C364.58 54.18 364.04 52.84 364.04 51.21C364.04 49.67 364.58 48.38 365.67 47.33C366.76 46.29 368.07 45.77 369.61 45.77C371.15 45.77 372.46 46.29 373.55 47.33C374.64 48.37 375.18 49.66 375.18 51.21C375.18 52.84 374.64 54.18 373.55 55.22C372.46 56.26 371.15 56.78 369.61 56.78C368.07 56.78 366.76 56.26 365.67 55.22Z" fill="#C6D76B"/>
<g opacity="0.3">
<path d="M114.38 26.0499L78.26 5.18994L42.13 26.0499V67.7599L78.26 88.6199L114.38 67.7599V26.0499Z" fill="#C6D76B"/>
</g>
<g opacity="0.5">
<path d="M78.15 88.7999L42.03 67.9399L5.89999 88.7999V130.51L42.03 151.37L78.15 130.51V88.7999Z" fill="#C6D76B"/>
</g>
<g opacity="0.7">
<path d="M150.61 88.6L114.49 67.74L78.36 88.6V130.31L114.49 151.17L150.61 130.31V88.6Z" fill="#C6D76B"/>
</g>
<path d="M114.38 68.69L78.26 47.83L42.13 68.69V110.41L78.26 131.26L114.38 110.41V68.69Z" fill="#A1C85C"/>
<path d="M72.46 89.3699C72.46 86.1699 75.06 83.5699 78.26 83.5699C81.46 83.5699 84.06 86.1699 84.06 89.3699C84.06 92.5699 81.46 95.1699 78.26 95.1699C75.06 95.1699 72.46 92.5699 72.46 89.3699Z" fill="#3E436D"/>
<path d="M72.46 5.8C72.46 2.6 75.06 0 78.26 0C81.46 0 84.06 2.6 84.06 5.8C84.06 9 81.46 11.6 78.26 11.6C75.06 11.6 72.46 9 72.46 5.8Z" fill="#3E436D"/>
<path d="M72.46 47.4899C72.46 44.2899 75.06 41.6899 78.26 41.6899C81.46 41.6899 84.06 44.2899 84.06 47.4899C84.06 50.6899 81.46 53.2899 78.26 53.2899C75.06 53.2899 72.46 50.6899 72.46 47.4899Z" fill="#3E436D"/>
<path d="M0 47.67C0 44.47 2.6 41.88 5.8 41.88C9 41.88 11.6 44.48 11.6 47.68C11.6 50.88 9 53.48 5.8 53.48C2.6 53.48 0 50.88 0 47.67Z" fill="#3E436D"/>
<path d="M72.46 131.24C72.46 128.04 75.06 125.44 78.26 125.44C81.46 125.44 84.06 128.04 84.06 131.24C84.06 134.44 81.46 137.04 78.26 137.04C75.06 137.04 72.46 134.44 72.46 131.24Z" fill="#3E436D"/>
<path d="M72.46 173.3C72.46 170.1 75.06 167.5 78.26 167.5C81.46 167.5 84.06 170.1 84.06 173.3C84.06 176.5 81.46 179.1 78.26 179.1C75.06 179.1 72.46 176.5 72.46 173.3Z" fill="#3E436D"/>
<path d="M47.83 26.72C47.83 29.92 45.23 32.52 42.03 32.52C38.83 32.52 36.23 29.92 36.23 26.72C36.23 23.52 38.83 20.92 42.03 20.92C45.23 20.92 47.83 23.52 47.83 26.72Z" fill="#3E436D"/>
<path d="M47.83 68.6101C47.83 71.8101 45.23 74.4101 42.03 74.4101C38.83 74.4101 36.23 71.8101 36.23 68.6101C36.23 65.4101 38.83 62.8101 42.03 62.8101C45.23 62.8101 47.83 65.4101 47.83 68.6101Z" fill="#3E436D"/>
<path d="M47.83 110.49C47.83 113.69 45.23 116.29 42.03 116.29C38.83 116.29 36.23 113.69 36.23 110.49C36.23 107.29 38.83 104.69 42.03 104.69C45.23 104.69 47.83 107.29 47.83 110.49Z" fill="#3E436D"/>
<path d="M47.83 152.38C47.83 155.58 45.23 158.18 42.03 158.18C38.83 158.18 36.23 155.58 36.23 152.38C36.23 149.18 38.83 146.58 42.03 146.58C45.23 146.58 47.83 149.18 47.83 152.38Z" fill="#3E436D"/>
<path d="M120.28 26.72C120.28 29.92 117.68 32.52 114.48 32.52C111.28 32.52 108.68 29.92 108.68 26.72C108.68 23.52 111.28 20.92 114.48 20.92C117.68 20.92 120.28 23.52 120.28 26.72Z" fill="#3E436D"/>
<path d="M120.28 68.6101C120.28 71.8101 117.68 74.4101 114.48 74.4101C111.28 74.4101 108.68 71.8101 108.68 68.6101C108.68 65.4101 111.28 62.8101 114.48 62.8101C117.68 62.8101 120.28 65.4101 120.28 68.6101Z" fill="#3E436D"/>
<path d="M120.28 110.49C120.28 113.69 117.68 116.29 114.48 116.29C111.28 116.29 108.68 113.69 108.68 110.49C108.68 107.29 111.28 104.69 114.48 104.69C117.68 104.69 120.28 107.29 120.28 110.49Z" fill="#3E436D"/>
<path d="M120.28 152.38C120.28 155.58 117.68 158.18 114.48 158.18C111.28 158.18 108.68 155.58 108.68 152.38C108.68 149.18 111.28 146.58 114.48 146.58C117.68 146.58 120.28 149.18 120.28 152.38Z" fill="#3E436D"/>
<path d="M11.6 89.3699C11.6 92.5699 9 95.1699 5.8 95.1699C2.6 95.1699 0 92.5699 0 89.3699C0 86.1699 2.6 83.5699 5.8 83.5699C9 83.5699 11.6 86.1699 11.6 89.3699Z" fill="#3E436D"/>
<path d="M11.6 131.27C11.6 134.47 9 137.07 5.8 137.07C2.6 137.07 0 134.47 0 131.27C0 128.07 2.6 125.47 5.8 125.47C9 125.47 11.6 128.07 11.6 131.27Z" fill="#3E436D"/>
<path d="M156.51 47.65C156.51 50.85 153.91 53.45 150.71 53.45C147.51 53.45 144.91 50.85 144.91 47.65C144.91 44.45 147.51 41.85 150.71 41.85C153.91 41.85 156.51 44.45 156.51 47.65Z" fill="#3E436D"/>
<path d="M156.51 89.55C156.51 92.75 153.91 95.35 150.71 95.35C147.51 95.35 144.91 92.75 144.91 89.55C144.91 86.35 147.51 83.75 150.71 83.75C153.91 83.75 156.51 86.35 156.51 89.55Z" fill="#3E436D"/>
<path d="M156.51 131.45C156.51 134.65 153.91 137.25 150.71 137.25C147.51 137.25 144.91 134.65 144.91 131.45C144.91 128.25 147.51 125.65 150.71 125.65C153.91 125.65 156.51 128.25 156.51 131.45Z" fill="#3E436D"/>
</g>
<defs>
<clipPath id="clip0_0_213">
<rect width="846.82" height="179.1" fill="white"/>
</clipPath>
</defs>
</svg>
