<svg width="200" height="86" viewBox="0 0 200 86" fill="none" xmlns="http://www.w3.org/2000/svg">
<path d="M37.5323 15.2116C37.5323 14.1489 38.3986 13.2874 39.4671 13.2874C40.5356 13.2874 41.4018 14.1489 41.4018 15.2116C41.4018 16.2744 40.5356 17.1359 39.4671 17.1359C38.3986 17.1359 37.5323 16.2744 37.5323 15.2116Z" fill="white"/>
<path d="M37.5323 29.1059C37.5323 28.0432 38.3986 27.1816 39.4671 27.1816C40.5356 27.1816 41.4018 28.0432 41.4018 29.1059C41.4018 30.1686 40.5356 31.0302 39.4671 31.0302C38.3986 31.0302 37.5323 30.1686 37.5323 29.1059Z" fill="white"/>
<path d="M13.3595 29.1059C13.3595 28.0432 14.2257 27.1816 15.2942 27.1816C16.3627 27.1816 17.2289 28.0432 17.2289 29.1059C17.2289 30.1686 16.3627 31.0302 15.2942 31.0302C14.2257 31.0302 13.3595 30.1686 13.3595 29.1059Z" fill="white"/>
<path d="M37.5323 42.9999C37.5323 41.9372 38.3986 41.0757 39.4671 41.0757C40.5356 41.0757 41.4018 41.9372 41.4018 42.9999C41.4018 44.0627 40.5356 44.9242 39.4671 44.9242C38.3986 44.9242 37.5323 44.0627 37.5323 42.9999Z" fill="white"/>
<path d="M37.5323 56.8942C37.5323 55.8315 38.3986 54.97 39.4671 54.97C40.5356 54.97 41.4018 55.8315 41.4018 56.8942C41.4018 57.957 40.5356 58.8185 39.4671 58.8185C38.3986 58.8185 37.5323 57.957 37.5323 56.8942Z" fill="white"/>
<path d="M37.5323 70.7885C37.5323 69.7258 38.3986 68.8643 39.4671 68.8643C40.5356 68.8643 41.4018 69.7258 41.4018 70.7885C41.4018 71.8513 40.5356 72.7128 39.4671 72.7128C38.3986 72.7128 37.5323 71.8513 37.5323 70.7885Z" fill="white"/>
<path d="M29.3154 22.1533C29.3154 23.216 28.4491 24.0775 27.3806 24.0775C26.3121 24.0775 25.4459 23.216 25.4459 22.1533C25.4459 21.0905 26.3121 20.229 27.3806 20.229C28.4491 20.229 29.3154 21.0905 29.3154 22.1533Z" fill="white"/>
<path d="M29.3154 36.0512C29.3154 37.114 28.4491 37.9755 27.3806 37.9755C26.3121 37.9755 25.4459 37.114 25.4459 36.0512C25.4459 34.9885 26.3121 34.127 27.3806 34.127C28.4491 34.127 29.3154 34.9885 29.3154 36.0512Z" fill="white"/>
<path d="M29.3154 49.9489C29.3154 51.0117 28.4491 51.8732 27.3806 51.8732C26.3121 51.8732 25.4459 51.0117 25.4459 49.9489C25.4459 48.8862 26.3121 48.0247 27.3806 48.0247C28.4491 48.0247 29.3154 48.8862 29.3154 49.9489Z" fill="white"/>
<path d="M29.3154 63.8469C29.3154 64.9096 28.4491 65.7711 27.3806 65.7711C26.3121 65.7711 25.4459 64.9096 25.4459 63.8469C25.4459 62.7841 26.3121 61.9226 27.3806 61.9226C28.4491 61.9226 29.3154 62.7841 29.3154 63.8469Z" fill="white"/>
<path d="M53.4865 22.1533C53.4865 23.216 52.6203 24.0775 51.5518 24.0775C50.4833 24.0775 49.6171 23.216 49.6171 22.1533C49.6171 21.0905 50.4833 20.229 51.5518 20.229C52.6203 20.229 53.4865 21.0905 53.4865 22.1533Z" fill="white"/>
<path d="M53.4865 36.0512C53.4865 37.114 52.6203 37.9755 51.5518 37.9755C50.4833 37.9755 49.6171 37.114 49.6171 36.0512C49.6171 34.9885 50.4833 34.127 51.5518 34.127C52.6203 34.127 53.4865 34.9885 53.4865 36.0512Z" fill="white"/>
<path d="M53.4865 49.9489C53.4865 51.0117 52.6203 51.8732 51.5518 51.8732C50.4833 51.8732 49.6171 51.0117 49.6171 49.9489C49.6171 48.8862 50.4833 48.0247 51.5518 48.0247C52.6203 48.0247 53.4865 48.8862 53.4865 49.9489Z" fill="white"/>
<path d="M53.4865 63.8469C53.4865 64.9096 52.6203 65.7711 51.5518 65.7711C50.4833 65.7711 49.6171 64.9096 49.6171 63.8469C49.6171 62.7841 50.4833 61.9226 51.5518 61.9226C52.6203 61.9226 53.4865 62.7841 53.4865 63.8469Z" fill="white"/>
<path d="M17.2289 42.9999C17.2289 44.0627 16.3627 44.9242 15.2942 44.9242C14.2257 44.9242 13.3595 44.0627 13.3595 42.9999C13.3595 41.9372 14.2257 41.0757 15.2942 41.0757C16.3627 41.0757 17.2289 41.9372 17.2289 42.9999Z" fill="white"/>
<path d="M17.2289 56.9016C17.2289 57.9643 16.3627 58.8258 15.2942 58.8258C14.2257 58.8258 13.3595 57.9643 13.3595 56.9016C13.3595 55.8388 14.2257 54.9773 15.2942 54.9773C16.3627 54.9773 17.2289 55.8388 17.2289 56.9016Z" fill="white"/>
<path d="M65.5729 29.0966C65.5729 30.1594 64.7067 31.0209 63.6382 31.0209C62.5697 31.0209 61.7035 30.1594 61.7035 29.0966C61.7035 28.0339 62.5697 27.1724 63.6382 27.1724C64.7067 27.1724 65.5729 28.0339 65.5729 29.0966Z" fill="white"/>
<path d="M65.5729 42.9999C65.5729 44.0627 64.7067 44.9242 63.6382 44.9242C62.5697 44.9242 61.7035 44.0627 61.7035 42.9999C61.7035 41.9372 62.5697 41.0757 63.6382 41.0757C64.7067 41.0757 65.5729 41.9372 65.5729 42.9999Z" fill="white"/>
<path d="M65.5729 56.9016C65.5729 57.9643 64.7067 58.8258 63.6382 58.8258C62.5697 58.8258 61.7035 57.9643 61.7035 56.9016C61.7035 55.8388 62.5697 54.9773 63.6382 54.9773C64.7067 54.9773 65.5729 55.8388 65.5729 56.9016Z" fill="white"/>
<path d="M96.4686 27.0305H99.3706V40.5187C100.309 39.0462 101.541 37.8719 103.067 36.9994C104.594 36.1269 106.28 35.6915 108.125 35.6915C110.241 35.6915 112.191 36.211 113.977 37.2481C115.761 38.2853 117.182 39.6992 118.24 41.4881C119.297 43.277 119.827 45.2251 119.827 47.3304C119.827 49.4357 119.297 51.3838 118.24 53.1727C117.18 54.9616 115.761 56.3755 113.977 57.4127C112.193 58.4498 110.241 58.9693 108.125 58.9693C106.008 58.9693 104.058 58.4498 102.273 57.4127C100.489 56.3755 99.0746 54.9616 98.0318 53.1727C96.989 51.3838 96.4667 49.4357 96.4667 47.3304V27.0305H96.4686ZM103.658 39.6169C102.311 40.3998 101.254 41.4735 100.483 42.8435C99.7127 44.2117 99.3265 45.7079 99.3265 47.3322C99.3265 48.9565 99.7127 50.4528 100.483 51.821C101.254 53.1892 102.304 54.2647 103.635 55.0457C104.965 55.8286 106.462 56.2182 108.125 56.2182C109.787 56.2182 111.247 55.8286 112.592 55.0457C113.936 54.2647 114.995 53.1892 115.766 51.821C116.537 50.4528 116.923 48.9565 116.923 47.3322C116.923 45.7079 116.529 44.219 115.744 42.8673C114.957 41.5137 113.892 40.4382 112.546 39.6407C111.2 38.845 109.727 38.4462 108.123 38.4462C106.519 38.4462 105 38.8377 103.656 39.6187" fill="white"/>
<path d="M142.392 37.2483C144.191 38.2854 145.613 39.6993 146.655 41.4882C147.698 43.2771 148.22 45.2252 148.22 47.3305C148.22 49.4359 147.698 51.3839 146.655 53.1728C145.613 54.9617 144.191 56.3757 142.392 57.4128C140.594 58.4499 138.635 58.9694 136.518 58.9694C134.401 58.9694 132.452 58.4499 130.668 57.4128C128.884 56.3757 127.463 54.9617 126.405 53.1728C125.346 51.3839 124.818 49.4359 124.818 47.3305C124.818 45.2252 125.348 43.279 126.405 41.4882C127.463 39.6993 128.884 38.2854 130.668 37.2483C132.452 36.2111 134.401 35.6917 136.518 35.6917C138.635 35.6917 140.592 36.2111 142.392 37.2483ZM132.097 39.617C130.751 40.3999 129.686 41.4736 128.899 42.8436C128.112 44.2118 127.72 45.7081 127.72 47.3323C127.72 48.9566 128.114 50.4456 128.899 51.7991C129.684 53.1527 130.758 54.2282 132.119 55.0239C133.48 55.8214 134.961 56.2202 136.564 56.2202C138.168 56.2202 139.641 55.8306 140.987 55.0477C142.332 54.2666 143.391 53.1911 144.161 51.8229C144.932 50.4547 145.318 48.9585 145.318 47.3342C145.318 45.7099 144.932 44.2155 144.161 42.8454C143.391 41.4772 142.339 40.4017 141.009 39.6188C139.678 38.8378 138.197 38.4463 136.564 38.4463C134.931 38.4463 133.441 38.8378 132.097 39.6188" fill="white"/>
<path d="M154.435 31.6089C154.072 31.2632 153.89 30.8187 153.89 30.2773C153.89 29.767 154.072 29.3371 154.435 28.9914C154.797 28.6457 155.235 28.4719 155.75 28.4719C156.265 28.4719 156.702 28.6457 157.065 28.9914C157.427 29.3371 157.609 29.7651 157.609 30.2773C157.609 30.8187 157.427 31.2632 157.065 31.6089C156.702 31.9546 156.263 32.1284 155.75 32.1284C155.237 32.1284 154.797 31.9565 154.435 31.6089ZM154.299 36.0519H157.201V58.6071H154.299V36.0519Z" fill="white"/>
<path d="M185.074 53.1727C184.031 54.9616 182.617 56.3755 180.833 57.4127C179.049 58.4498 177.098 58.9693 174.983 58.9693C172.868 58.9693 170.916 58.4498 169.132 57.4127C167.349 56.3755 165.927 54.9616 164.869 53.1727C163.81 51.3838 163.282 49.4357 163.282 47.3304C163.282 45.2251 163.812 43.2788 164.869 41.4881C165.927 39.6992 167.349 38.2853 169.132 37.2481C170.916 36.211 172.868 35.6915 174.983 35.6915C176.827 35.6915 178.512 36.1287 180.04 36.9994C181.566 37.8719 182.799 39.0444 183.737 40.5187V27.0305H186.641V47.3304C186.641 49.4357 186.118 51.3838 185.075 53.1727M170.561 39.6388C169.215 40.4363 168.15 41.5101 167.363 42.8654C166.576 44.219 166.184 45.7079 166.184 47.3304C166.184 48.9529 166.571 50.4509 167.341 51.8191C168.112 53.1873 169.169 54.2629 170.515 55.0439C171.862 55.8268 173.349 56.2164 174.983 56.2164C176.616 56.2164 178.142 55.8268 179.474 55.0439C180.803 54.2629 181.855 53.1873 182.626 51.8191C183.396 50.4509 183.783 48.9547 183.783 47.3304C183.783 45.7061 183.396 44.2117 182.626 42.8417C181.855 41.4735 180.796 40.3979 179.452 39.6169C178.105 38.8358 176.616 38.4444 174.984 38.4444C173.353 38.4444 171.908 38.8432 170.561 39.6407" fill="white"/>
</svg>
