<svg width="390" height="1020" viewBox="0 0 390 1020" fill="none" xmlns="http://www.w3.org/2000/svg">
<mask id="mask0_32_234" style="mask-type:alpha" maskUnits="userSpaceOnUse" x="-632" y="0" width="1443" height="1020">
<path d="M-632 104L811 0V1020H-632V104Z" fill="#3E426D"/>
</mask>
<g mask="url(#mask0_32_234)">
<rect y="31" width="389" height="685" fill="#3E426D"/>
<g filter="url(#filter0_f_32_234)">
<path d="M631.728 83.1423H-613.97V132.89C-613.97 142.84 -627.862 181.312 -683.432 255.602C-752.895 348.466 -697.325 275.502 -544.507 341.832C-451.89 341.832 -470.413 295.401 -396.32 255.602C-322.226 215.804 -350.011 255.602 -215.717 341.832C-81.4223 428.062 -206.455 398.214 -150.885 510.976C-95.3149 623.738 -76.7915 510.976 168.643 554.091C414.078 597.206 238.106 530.875 386.293 510.976C534.48 491.077 465.018 447.962 465.018 418.113C465.018 388.264 511.326 381.631 566.896 341.832C622.466 302.034 631.728 302.034 687.298 275.502C742.868 248.969 747.499 202.538 738.237 162.739C728.976 122.941 673.406 83.1423 631.728 83.1423Z" fill="#756F8E"/>
</g>
<g filter="url(#filter1_f_32_234)">
<path d="M260.88 516.316C187.28 546.132 166.213 488.602 164.88 456.109L140.879 436.04C128.879 426.484 102.48 403.93 92.8796 390.169C80.8796 372.967 128.88 364.366 164.88 327.095C200.88 289.824 -163 232.225 -107 209.29C-51 186.354 352.88 238.219 388.88 192.347C424.88 146.475 513 97.4774 653 126.147C793 154.817 865 178.012 893 192.347C921 206.682 671 355.505 755 381.308C839 407.111 864.88 401.637 872.88 436.04C880.88 470.444 853 495.987 789 544.726C725 593.465 716.88 553.586 632.88 562.187C548.88 570.788 572.88 539.251 532.88 516.316C492.88 493.38 480.88 481.912 424.88 470.444C368.88 458.976 352.88 479.045 260.88 516.316Z" fill="#FABB78"/>
</g>
<g filter="url(#filter2_f_32_234)">
<path d="M387.7 207.506C292.255 187.736 347.931 136.662 387.7 113.597C414.91 113.597 484.4 100.746 544.681 49.3429C620.032 -14.911 638.87 49.3429 789.572 49.3429C940.275 49.3429 927.716 39.4577 971.671 49.3429C1015.63 59.2281 1078.42 113.597 1078.42 153.138C1078.42 192.679 1090.98 242.105 1078.42 316.244C1065.86 390.383 1034.46 390.383 971.671 395.325C908.878 400.268 978.782 345.899 927.716 345.899C889.866 345.899 830.057 323.866 823.778 289.267C817.498 254.669 808.695 222.334 752.182 207.506C695.669 192.679 764.455 163.023 638.87 207.506C513.285 251.99 507.006 232.219 387.7 207.506Z" fill="#FFFAE6"/>
</g>
<g filter="url(#filter3_f_32_234)">
<path d="M-572 759.749C-121.333 757.838 784.801 755.162 804 759.749V504.588C804 491.209 791.2 464.45 740 464.45C676 464.45 692 478.785 628 504.588C564 530.391 588 507.455 496 478.785C404 450.115 468 464.45 272 464.45C204 527.524 208 464.45 172 427.18C136 389.909 148 401.377 -12 464.45C-96 527.524 -48 475.918 -120 478.785C-192 481.652 -136 444.382 -120 401.377C-104 358.372 -80 352.638 -224 352.638C-288 349.771 -288 326.835 -360 275.23C-432 223.624 -484 252.294 -524 255.161C-564 258.028 -572 286.698 -620 301.033C-658.4 312.501 -636 611.622 -620 759.749H-572Z" fill="#3E426D"/>
<path d="M-572 759.749C-121.333 757.838 784.801 755.162 804 759.749V504.588C804 491.209 791.2 464.45 740 464.45C676 464.45 692 478.785 628 504.588C564 530.391 588 507.455 496 478.785C404 450.115 468 464.45 272 464.45C204 527.524 208 464.45 172 427.18C136 389.909 148 401.377 -12 464.45C-96 527.524 -48 475.918 -120 478.785C-192 481.652 -136 444.382 -120 401.377C-104 358.372 -80 352.638 -224 352.638C-288 349.771 -288 326.835 -360 275.23C-432 223.624 -484 252.294 -524 255.161C-564 258.028 -572 286.698 -620 301.033C-658.4 312.501 -636 611.622 -620 759.749H-572Z" stroke="black"/>
</g>
</g>
<defs>
<filter id="filter0_f_32_234" x="-913" y="-116.858" width="1855" height="885.236" filterUnits="userSpaceOnUse" color-interpolation-filters="sRGB">
<feFlood flood-opacity="0" result="BackgroundImageFix"/>
<feBlend mode="normal" in="SourceGraphic" in2="BackgroundImageFix" result="shape"/>
<feGaussianBlur stdDeviation="100" result="effect1_foregroundBlur_32_234"/>
</filter>
<filter id="filter1_f_32_234" x="-312.872" y="-82.3894" width="1408.07" height="851.841" filterUnits="userSpaceOnUse" color-interpolation-filters="sRGB">
<feFlood flood-opacity="0" result="BackgroundImageFix"/>
<feBlend mode="normal" in="SourceGraphic" in2="BackgroundImageFix" result="shape"/>
<feGaussianBlur stdDeviation="100" result="effect1_foregroundBlur_32_234"/>
</filter>
<filter id="filter2_f_32_234" x="135" y="-179.214" width="1149" height="774.857" filterUnits="userSpaceOnUse" color-interpolation-filters="sRGB">
<feFlood flood-opacity="0" result="BackgroundImageFix"/>
<feBlend mode="normal" in="SourceGraphic" in2="BackgroundImageFix" result="shape"/>
<feGaussianBlur stdDeviation="100" result="effect1_foregroundBlur_32_234"/>
</filter>
<filter id="filter3_f_32_234" x="-1041.7" y="-155.852" width="2246.2" height="1316.23" filterUnits="userSpaceOnUse" color-interpolation-filters="sRGB">
<feFlood flood-opacity="0" result="BackgroundImageFix"/>
<feBlend mode="normal" in="SourceGraphic" in2="BackgroundImageFix" result="shape"/>
<feGaussianBlur stdDeviation="200" result="effect1_foregroundBlur_32_234"/>
</filter>
</defs>
</svg>
